<?xml version="1.0" encoding="UTF-8" standalone="no"?>
<!-- Created with Inkscape (http://www.inkscape.org/) -->

<svg
   xmlns:dc="http://purl.org/dc/elements/1.1/"
   xmlns:cc="http://creativecommons.org/ns#"
   xmlns:rdf="http://www.w3.org/1999/02/22-rdf-syntax-ns#"
   xmlns:svg="http://www.w3.org/2000/svg"
   xmlns="http://www.w3.org/2000/svg"
   xmlns:sodipodi="http://sodipodi.sourceforge.net/DTD/sodipodi-0.dtd"
   xmlns:inkscape="http://www.inkscape.org/namespaces/inkscape"
   width="141.90083mm"
   height="71.573883mm"
   viewBox="0 0 141.90083 71.573883"
   version="1.1"
   id="svg5103"
   inkscape:version="0.92.4 (5da689c313, 2019-01-14)"
   sodipodi:docname="IF_Parana_Campus-Foz.svg">
  <defs
     id="defs5097" />
  <sodipodi:namedview
     id="base"
     pagecolor="#ffffff"
     bordercolor="#666666"
     borderopacity="1.0"
     inkscape:pageopacity="0.0"
     inkscape:pageshadow="2"
     inkscape:zoom="1.0609375"
     inkscape:cx="290.69203"
     inkscape:cy="133.57479"
     inkscape:document-units="mm"
     inkscape:current-layer="layer1"
     showgrid="false"
     inkscape:window-width="1680"
     inkscape:window-height="991"
     inkscape:window-x="0"
     inkscape:window-y="31"
     inkscape:window-maximized="1" />
  <metadata
     id="metadata5100">
    <rdf:RDF>
      <cc:Work
         rdf:about="">
        <dc:format>image/svg+xml</dc:format>
        <dc:type
           rdf:resource="http://purl.org/dc/dcmitype/StillImage" />
        <dc:title></dc:title>
      </cc:Work>
    </rdf:RDF>
  </metadata>
  <g
     inkscape:label="Camada 1"
     inkscape:groupmode="layer"
     id="layer1"
     transform="translate(-30.674522,-90.009323)">
    <g
       id="g5939"
       transform="matrix(1.6952295,0,0,1.6952295,-147.35075,-107.11596)">
      <path
         d="m 125.72273,140.86768 c 0,0.20814 -0.16898,0.37677 -0.37677,0.37677 h -3.11644 c -0.20813,0 -0.37641,-0.16863 -0.37641,-0.37677 v -3.11644 c 0,-0.20814 0.16828,-0.37677 0.37641,-0.37677 h 3.11644 c 0.20779,0 0.37677,0.16863 0.37677,0.37677 z"
         style="fill:#37a033;fill-opacity:1;fill-rule:nonzero;stroke:none;stroke-width:0.35277778"
         id="path3580"
         inkscape:connector-curvature="0" />
      <path
         d="m 121.07872,131.58003 c 0,0.20849 -0.16898,0.37712 -0.37677,0.37712 h -3.11573 c -0.20884,0 -0.37712,-0.16863 -0.37712,-0.37712 v -3.11609 c 0,-0.20849 0.16828,-0.37641 0.37712,-0.37641 h 3.11573 c 0.20779,0 0.37677,0.16792 0.37677,0.37641 z"
         style="fill:#37a033;fill-opacity:1;fill-rule:nonzero;stroke:none;stroke-width:0.35277778"
         id="path3584"
         inkscape:connector-curvature="0" />
      <path
         d="m 125.72273,131.58003 c 0,0.20849 -0.16898,0.37712 -0.37677,0.37712 h -3.11644 c -0.20813,0 -0.37641,-0.16863 -0.37641,-0.37712 v -3.11609 c 0,-0.20849 0.16828,-0.37641 0.37641,-0.37641 h 3.11644 c 0.20779,0 0.37677,0.16792 0.37677,0.37641 z"
         style="fill:#37a033;fill-opacity:1;fill-rule:nonzero;stroke:none;stroke-width:0.35277778"
         id="path3588"
         inkscape:connector-curvature="0" />
      <path
         d="m 116.43543,136.22092 c 0,0.20814 -0.16898,0.37677 -0.37606,0.37677 h -3.11715 c -0.20813,0 -0.37641,-0.16863 -0.37641,-0.37677 v -3.11609 c 0,-0.20849 0.16828,-0.37712 0.37641,-0.37712 h 3.11715 c 0.20708,0 0.37606,0.16863 0.37606,0.37712 z"
         style="fill:#37a033;fill-opacity:1;fill-rule:nonzero;stroke:none;stroke-width:0.35277778"
         id="path3592"
         inkscape:connector-curvature="0" />
      <path
         d="m 121.07872,136.22092 c 0,0.20814 -0.16898,0.37677 -0.37677,0.37677 h -3.11573 c -0.20884,0 -0.37712,-0.16863 -0.37712,-0.37677 v -3.11609 c 0,-0.20849 0.16828,-0.37712 0.37712,-0.37712 h 3.11573 c 0.20779,0 0.37677,0.16863 0.37677,0.37712 z"
         style="fill:#37a033;fill-opacity:1;fill-rule:nonzero;stroke:none;stroke-width:0.35277778"
         id="path3596"
         inkscape:connector-curvature="0" />
      <path
         d="m 116.43543,140.86768 c 0,0.20814 -0.16898,0.37677 -0.37606,0.37677 h -3.11715 c -0.20813,0 -0.37641,-0.16863 -0.37641,-0.37677 v -3.11644 c 0,-0.20814 0.16828,-0.37677 0.37641,-0.37677 h 3.11715 c 0.20708,0 0.37606,0.16863 0.37606,0.37677 z"
         style="fill:#37a033;fill-opacity:1;fill-rule:nonzero;stroke:none;stroke-width:0.35277778"
         id="path3600"
         inkscape:connector-curvature="0" />
      <path
         d="m 121.07872,140.86768 c 0,0.20814 -0.16898,0.37677 -0.37677,0.37677 h -3.11573 c -0.20884,0 -0.37712,-0.16863 -0.37712,-0.37677 v -3.11644 c 0,-0.20814 0.16828,-0.37677 0.37712,-0.37677 h 3.11573 c 0.20779,0 0.37677,0.16863 0.37677,0.37677 z"
         style="fill:#37a033;fill-opacity:1;fill-rule:nonzero;stroke:none;stroke-width:0.35277778"
         id="path3604"
         inkscape:connector-curvature="0" />
      <path
         d="m 116.43543,145.51581 c 0,0.20814 -0.16898,0.37677 -0.37606,0.37677 h -3.11715 c -0.20813,0 -0.37641,-0.16863 -0.37641,-0.37677 v -3.11644 c 0,-0.20814 0.16828,-0.37606 0.37641,-0.37606 h 3.11715 c 0.20708,0 0.37606,0.16792 0.37606,0.37606 z"
         style="fill:#37a033;fill-opacity:1;fill-rule:nonzero;stroke:none;stroke-width:0.35277778"
         id="path3608"
         inkscape:connector-curvature="0" />
      <path
         d="m 121.07872,145.51581 c 0,0.20814 -0.16898,0.37677 -0.37677,0.37677 h -3.11573 c -0.20884,0 -0.37712,-0.16863 -0.37712,-0.37677 v -3.11644 c 0,-0.20814 0.16828,-0.37606 0.37712,-0.37606 h 3.11573 c 0.20779,0 0.37677,0.16792 0.37677,0.37606 z"
         style="fill:#37a033;fill-opacity:1;fill-rule:nonzero;stroke:none;stroke-width:0.35277778"
         id="path3612"
         inkscape:connector-curvature="0" />
      <path
         d="m 116.62836,130.02251 c 0,1.1751 -0.95215,2.1276 -2.1276,2.1276 -1.17616,0 -2.12831,-0.9525 -2.12831,-2.1276 0,-1.17616 0.95215,-2.12901 2.12831,-2.12901 1.17545,0 2.1276,0.95285 2.1276,2.12901"
         style="fill:#cf181f;fill-opacity:1;fill-rule:nonzero;stroke:none;stroke-width:0.35277778"
         id="path3616"
         inkscape:connector-curvature="0" />
      <g
         id="text3620"
         style="font-variant:normal;font-weight:bold;font-stretch:normal;font-size:5.39769173px;font-family:'Open Sans';-inkscape-font-specification:OpenSans-Bold;writing-mode:lr-tb;fill:#1f1613;fill-opacity:1;fill-rule:nonzero;stroke:none;stroke-width:0.35247242"
         transform="scale(1.0008664,0.99913436)"
         aria-label="INSTITUTO FEDERAL">
        <path
           id="path5854"
           style="stroke-width:0.35247242"
           d="m 128.32126,136.63116 v -3.85323 h 0.81703 v 3.85323 z"
           inkscape:connector-curvature="0" />
        <path
           id="path5856"
           style="stroke-width:0.35247242"
           d="m 133.53165,136.63116 h -1.03842 l -1.67624,-2.91496 h -0.0237 q 0.0501,0.77223 0.0501,1.10168 v 1.81328 h -0.73006 v -3.85323 h 1.03052 l 1.6736,2.88597 h 0.0185 q -0.0395,-0.75114 -0.0395,-1.06214 v -1.82383 h 0.73533 z"
           inkscape:connector-curvature="0" />
        <path
           id="path5858"
           style="stroke-width:0.35247242"
           d="m 136.78692,135.56111 q 0,0.52185 -0.37689,0.82231 -0.37426,0.30046 -1.0437,0.30046 -0.61673,0 -1.09113,-0.23194 v -0.75905 q 0.39006,0.17395 0.65889,0.24511 0.27147,0.0712 0.4955,0.0712 0.26883,0 0.41115,-0.10278 0.14496,-0.10279 0.14496,-0.30573 0,-0.11333 -0.0633,-0.20031 -0.0632,-0.0896 -0.18713,-0.17131 -0.12123,-0.0817 -0.49812,-0.26092 -0.35317,-0.16605 -0.52976,-0.31891 -0.17658,-0.15286 -0.28201,-0.35581 -0.10542,-0.20294 -0.10542,-0.4744 0,-0.51131 0.34526,-0.80386 0.3479,-0.29255 0.95936,-0.29255 0.30046,0 0.57192,0.0712 0.2741,0.0712 0.57193,0.20031 l -0.26356,0.63518 q -0.30837,-0.12651 -0.51131,-0.17659 -0.2003,-0.0501 -0.39534,-0.0501 -0.23193,0 -0.3558,0.10806 -0.12387,0.10806 -0.12387,0.28201 0,0.10806 0.0501,0.18976 0.0501,0.0791 0.15814,0.1555 0.11069,0.0738 0.51921,0.26884 0.5403,0.25828 0.7406,0.51921 0.20031,0.25828 0.20031,0.63517 z"
           inkscape:connector-curvature="0" />
        <path
           id="path5860"
           style="stroke-width:0.35247242"
           d="m 138.98381,136.63116 h -0.81703 v -3.17325 h -1.04633 v -0.67998 h 2.90969 v 0.67998 h -1.04633 z"
           inkscape:connector-curvature="0" />
        <path
           id="path5862"
           style="stroke-width:0.35247242"
           d="m 140.62798,136.63116 v -3.85323 h 0.81704 v 3.85323 z"
           inkscape:connector-curvature="0" />
        <path
           id="path5864"
           style="stroke-width:0.35247242"
           d="m 143.9065,136.63116 h -0.81704 v -3.17325 h -1.04633 v -0.67998 h 2.9097 v 0.67998 h -1.04633 z"
           inkscape:connector-curvature="0" />
        <path
           id="path5866"
           style="stroke-width:0.35247242"
           d="m 148.68704,132.77793 v 2.49327 q 0,0.42697 -0.1924,0.74851 -0.18976,0.32154 -0.55084,0.49285 -0.36108,0.17132 -0.85393,0.17132 -0.74324,0 -1.15439,-0.37953 -0.41115,-0.38216 -0.41115,-1.04369 v -2.48273 h 0.8144 v 2.35885 q 0,0.44542 0.17922,0.65363 0.17922,0.20821 0.593,0.20821 0.40061,0 0.57983,-0.20821 0.18186,-0.21085 0.18186,-0.6589 v -2.35358 z"
           inkscape:connector-curvature="0" />
        <path
           id="path5868"
           style="stroke-width:0.35247242"
           d="m 151.1286,136.63116 h -0.81703 v -3.17325 h -1.04633 v -0.67998 h 2.90969 v 0.67998 h -1.04633 z"
           inkscape:connector-curvature="0" />
        <path
           id="path5870"
           style="stroke-width:0.35247242"
           d="m 156.27024,134.69928 q 0,0.95672 -0.47441,1.47066 -0.47441,0.51394 -1.35997,0.51394 -0.88555,0 -1.35996,-0.51394 -0.47441,-0.51394 -0.47441,-1.47594 0,-0.96199 0.47441,-1.46802 0.47704,-0.50867 1.36524,-0.50867 0.88819,0 1.35733,0.51131 0.47177,0.5113 0.47177,1.47066 z m -2.81218,0 q 0,0.64572 0.24511,0.97253 0.24511,0.32681 0.73269,0.32681 0.97781,0 0.97781,-1.29934 0,-1.30199 -0.97253,-1.30199 -0.48759,0 -0.73533,0.32945 -0.24775,0.32682 -0.24775,0.97254 z"
           inkscape:connector-curvature="0" />
        <path
           id="path5872"
           style="stroke-width:0.35247242"
           d="m 159.2982,136.63116 h -0.80385 v -3.85323 h 2.20862 v 0.66944 h -1.40477 v 0.99362 h 1.30726 v 0.6668 h -1.30726 z"
           inkscape:connector-curvature="0" />
        <path
           id="path5874"
           style="stroke-width:0.35247242"
           d="m 163.68765,136.63116 h -2.21917 v -3.85323 h 2.21917 v 0.66944 h -1.40213 v 0.84602 h 1.30462 v 0.66945 h -1.30462 v 0.99361 h 1.40213 z"
           inkscape:connector-curvature="0" />
        <path
           id="path5876"
           style="stroke-width:0.35247242"
           d="m 167.69356,134.66765 q 0,0.95145 -0.54293,1.45748 -0.54029,0.50603 -1.5629,0.50603 h -1.09114 v -3.85323 h 1.20974 q 0.94354,0 1.46539,0.49813 0.52184,0.49812 0.52184,1.39159 z m -0.84866,0.0211 q 0,-1.24136 -1.0964,-1.24136 h -0.43488 v 2.50908 h 0.35054 q 1.18074,0 1.18074,-1.26772 z"
           inkscape:connector-curvature="0" />
        <path
           id="path5878"
           style="stroke-width:0.35247242"
           d="m 170.71545,136.63116 h -2.21916 v -3.85323 h 2.21916 v 0.66944 h -1.40213 v 0.84602 h 1.30462 v 0.66945 h -1.30462 v 0.99361 h 1.40213 z"
           inkscape:connector-curvature="0" />
        <path
           id="path5880"
           style="stroke-width:0.35247242"
           d="m 172.34143,134.48843 h 0.26356 q 0.38743,0 0.57192,-0.12915 0.18449,-0.12914 0.18449,-0.40588 0,-0.2741 -0.18976,-0.39006 -0.18713,-0.11597 -0.58247,-0.11597 h -0.24774 z m 0,0.66417 v 1.47856 h -0.81704 v -3.85323 h 1.12276 q 0.78541,0 1.1623,0.28728 0.37689,0.28464 0.37689,0.86711 0,0.33999 -0.18713,0.60618 -0.18712,0.26356 -0.52975,0.41379 0.86974,1.29935 1.1333,1.67887 h -0.90664 l -0.91982,-1.47856 z"
           inkscape:connector-curvature="0" />
        <path
           id="path5882"
           style="stroke-width:0.35247242"
           d="m 177.45112,136.63116 -0.27937,-0.91718 h -1.40477 l -0.27938,0.91718 h -0.88028 l 1.35996,-3.86904 h 0.99889 l 1.36524,3.86904 z m -0.47441,-1.60244 q -0.38743,-1.24663 -0.43751,-1.41004 -0.0474,-0.1634 -0.0685,-0.25828 -0.087,0.33735 -0.49813,1.66832 z"
           inkscape:connector-curvature="0" />
        <path
           id="path5884"
           style="stroke-width:0.35247242"
           d="m 178.82746,136.63116 v -3.85323 h 0.81704 v 3.17852 h 1.5629 v 0.67471 z"
           inkscape:connector-curvature="0" />
      </g>
      <g
         id="text3624"
         style="font-variant:normal;font-weight:normal;font-stretch:normal;font-size:4.07846212px;font-family:'Open Sans';-inkscape-font-specification:OpenSans;writing-mode:lr-tb;fill:#1f1613;fill-opacity:1;fill-rule:nonzero;stroke:none;stroke-width:0.35247275"
         transform="scale(1.0008653,0.99913543)"
         aria-label="Paraná">
        <path
           id="path5841"
           style="stroke-width:0.35247275"
           d="m 130.18171,139.34089 q 0,0.4421 -0.3027,0.68108 -0.3007,0.23698 -0.86229,0.23698 h -0.34253 v 1.14507 h -0.33854 v -2.91148 h 0.75475 q 1.09131,0 1.09131,0.84835 z m -1.50752,0.62731 h 0.30469 q 0.45007,0 0.6512,-0.14538 0.20114,-0.14537 0.20114,-0.46599 0,-0.28876 -0.18919,-0.43015 -0.18918,-0.1414 -0.58946,-0.1414 h -0.37838 z"
           inkscape:connector-curvature="0" />
        <path
           id="path5843"
           style="stroke-width:0.35247275"
           d="m 132.08333,141.40402 -0.0657,-0.31066 h -0.0159 q -0.1633,0.20512 -0.32659,0.2788 -0.16131,0.0717 -0.40427,0.0717 -0.3246,0 -0.5098,-0.16728 -0.18322,-0.16728 -0.18322,-0.47595 0,-0.66116 1.05746,-0.69302 l 0.3704,-0.0119 v -0.13542 q 0,-0.25689 -0.11152,-0.37837 -0.10952,-0.12347 -0.35248,-0.12347 -0.27283,0 -0.61735,0.16728 l -0.10156,-0.25291 q 0.16131,-0.0876 0.35249,-0.13741 0.19317,-0.0498 0.38633,-0.0498 0.39033,0 0.57752,0.17326 0.18919,0.17325 0.18919,0.55561 v 1.48959 z m -0.74679,-0.233 q 0.30867,0 0.48392,-0.16927 0.17724,-0.16927 0.17724,-0.47396 v -0.19715 l -0.33058,0.0139 q -0.3943,0.0139 -0.56955,0.12347 -0.17326,0.10753 -0.17326,0.33655 0,0.17923 0.10754,0.27283 0.10953,0.0936 0.30469,0.0936 z"
           inkscape:connector-curvature="0" />
        <path
           id="path5845"
           style="stroke-width:0.35247275"
           d="m 134.00444,139.18158 q 0.14538,0 0.26088,0.0239 l -0.0458,0.30668 q -0.13542,-0.0299 -0.23897,-0.0299 -0.26486,0 -0.45405,0.21507 -0.1872,0.21508 -0.1872,0.5357 v 1.17096 h -0.33057 v -2.18261 h 0.27282 l 0.0378,0.40426 h 0.0159 q 0.12148,-0.21308 0.29274,-0.32859 0.17127,-0.1155 0.37638,-0.1155 z"
           inkscape:connector-curvature="0" />
        <path
           id="path5847"
           style="stroke-width:0.35247275"
           d="m 136.01496,141.40402 -0.0657,-0.31066 h -0.0159 q -0.1633,0.20512 -0.3266,0.2788 -0.1613,0.0717 -0.40426,0.0717 -0.3246,0 -0.50981,-0.16728 -0.18321,-0.16728 -0.18321,-0.47595 0,-0.66116 1.05745,-0.69302 l 0.37041,-0.0119 v -0.13542 q 0,-0.25689 -0.11152,-0.37837 -0.10953,-0.12347 -0.35248,-0.12347 -0.27283,0 -0.61735,0.16728 l -0.10156,-0.25291 q 0.1613,-0.0876 0.35248,-0.13741 0.19317,-0.0498 0.38634,-0.0498 0.39032,0 0.57752,0.17326 0.18918,0.17325 0.18918,0.55561 v 1.48959 z m -0.74679,-0.233 q 0.30867,0 0.48392,-0.16927 0.17723,-0.16927 0.17723,-0.47396 v -0.19715 l -0.33057,0.0139 q -0.39431,0.0139 -0.56955,0.12347 -0.17326,0.10753 -0.17326,0.33655 0,0.17923 0.10754,0.27283 0.10953,0.0936 0.30469,0.0936 z"
           inkscape:connector-curvature="0" />
        <path
           id="path5849"
           style="stroke-width:0.35247275"
           d="m 138.43394,141.40402 v -1.41193 q 0,-0.26685 -0.12147,-0.39828 -0.12148,-0.13144 -0.38037,-0.13144 -0.34252,0 -0.50184,0.18521 -0.15931,0.1852 -0.15931,0.61137 v 1.14507 h -0.33058 v -2.18261 h 0.26884 l 0.0538,0.29871 h 0.0159 q 0.10156,-0.1613 0.28478,-0.24893 0.18321,-0.0896 0.40824,-0.0896 0.39431,0 0.59345,0.19118 0.19914,0.18918 0.19914,0.60739 v 1.42387 z"
           inkscape:connector-curvature="0" />
        <path
           id="path5851"
           style="stroke-width:0.35247275"
           d="m 140.78676,141.40402 -0.0657,-0.31066 h -0.0159 q -0.1633,0.20512 -0.32659,0.2788 -0.16131,0.0717 -0.40427,0.0717 -0.3246,0 -0.5098,-0.16728 -0.18322,-0.16728 -0.18322,-0.47595 0,-0.66116 1.05746,-0.69302 l 0.3704,-0.0119 v -0.13542 q 0,-0.25689 -0.11152,-0.37837 -0.10952,-0.12347 -0.35248,-0.12347 -0.27283,0 -0.61735,0.16728 l -0.10156,-0.25291 q 0.16131,-0.0876 0.35249,-0.13741 0.19317,-0.0498 0.38633,-0.0498 0.39033,0 0.57752,0.17326 0.18919,0.17325 0.18919,0.55561 v 1.48959 z m -0.74679,-0.233 q 0.30867,0 0.48392,-0.16927 0.17724,-0.16927 0.17724,-0.47396 v -0.19715 l -0.33058,0.0139 q -0.3943,0.0139 -0.56955,0.12347 -0.17326,0.10753 -0.17326,0.33655 0,0.17923 0.10754,0.27283 0.10953,0.0936 0.30469,0.0936 z m -0.0777,-2.28816 q 0.0956,-0.12347 0.20511,-0.29871 0.11152,-0.17525 0.17525,-0.30469 h 0.40227 v 0.0418 q -0.0876,0.12944 -0.26088,0.31863 -0.17325,0.18918 -0.3007,0.29274 h -0.22105 z"
           inkscape:connector-curvature="0" />
      </g>
      <g
         id="text3628"
         style="font-variant:normal;font-weight:normal;font-stretch:normal;font-size:4.07856798px;font-family:'Open Sans';-inkscape-font-specification:OpenSans;writing-mode:lr-tb;fill:#1f1613;fill-opacity:1;fill-rule:nonzero;stroke:none;stroke-width:0.35247275"
         transform="scale(1.0008653,0.99913544)"
         aria-label="Campus Foz do Iguaçu">
        <path
           id="path5806"
           style="stroke-width:0.35247275"
           d="m 129.58216,143.38859 q -0.47994,0 -0.75875,0.32063 -0.27682,0.31864 -0.27682,0.87426 0,0.57156 0.26686,0.88422 0.26885,0.31068 0.76473,0.31068 0.3047,0 0.69503,-0.10954 v 0.29674 q -0.30271,0.11351 -0.74681,0.11351 -0.64325,0 -0.99375,-0.39033 -0.34851,-0.39033 -0.34851,-1.10926 0,-0.45008 0.16728,-0.78863 0.16928,-0.33855 0.48593,-0.52177 0.31864,-0.18322 0.7488,-0.18322 0.45804,0 0.80058,0.16729 l -0.14339,0.29076 q -0.33059,-0.15534 -0.66118,-0.15534 z"
           inkscape:connector-curvature="0" />
        <path
           id="path5808"
           style="stroke-width:0.35247275"
           d="m 132.20097,146.03926 -0.0657,-0.31067 h -0.0159 q -0.1633,0.20512 -0.3266,0.27881 -0.16131,0.0717 -0.40428,0.0717 -0.32461,0 -0.50982,-0.16728 -0.18321,-0.16729 -0.18321,-0.47597 0,-0.66117 1.05748,-0.69304 l 0.37041,-0.0119 v -0.13542 q 0,-0.2569 -0.11152,-0.37838 -0.10953,-0.12347 -0.35249,-0.12347 -0.27284,0 -0.61736,0.16728 l -0.10157,-0.25292 q 0.16131,-0.0876 0.35249,-0.13741 0.19318,-0.0498 0.38635,-0.0498 0.39033,0 0.57753,0.17326 0.18919,0.17326 0.18919,0.55563 v 1.48963 z m -0.74681,-0.233 q 0.30868,0 0.48393,-0.16928 0.17725,-0.16928 0.17725,-0.47397 v -0.19716 l -0.33059,0.0139 q -0.39431,0.0139 -0.56957,0.12347 -0.17325,0.10754 -0.17325,0.33656 0,0.17924 0.10754,0.27284 0.10953,0.0936 0.30469,0.0936 z"
           inkscape:connector-curvature="0" />
        <path
           id="path5810"
           style="stroke-width:0.35247275"
           d="m 135.91111,146.03926 v -1.41993 q 0,-0.26089 -0.11152,-0.39033 -0.11152,-0.13144 -0.34652,-0.13144 -0.30868,0 -0.45605,0.17724 -0.14737,0.17724 -0.14737,0.54567 v 1.21879 h -0.33059 v -1.41993 q 0,-0.26089 -0.11152,-0.39033 -0.11152,-0.13144 -0.34851,-0.13144 -0.31067,0 -0.45605,0.1872 -0.14339,0.18521 -0.14339,0.6094 v 1.1451 H 133.129 v -2.18267 h 0.26886 l 0.0538,0.29872 h 0.0159 q 0.0936,-0.15932 0.26287,-0.24893 0.17127,-0.0896 0.38237,-0.0896 0.51181,0 0.66914,0.37042 h 0.0159 q 0.0976,-0.17127 0.28279,-0.27085 0.18521,-0.0996 0.4222,-0.0996 0.37042,0 0.55363,0.19118 0.18521,0.18919 0.18521,0.60741 v 1.42391 z"
           inkscape:connector-curvature="0" />
        <path
           id="path5812"
           style="stroke-width:0.35247275"
           d="m 137.93646,146.07909 q -0.21309,0 -0.39033,-0.0777 -0.17526,-0.0797 -0.29474,-0.24296 h -0.0239 q 0.0239,0.19118 0.0239,0.36245 v 0.89816 h -0.33059 v -3.16248 h 0.26885 l 0.0458,0.29872 h 0.0159 q 0.12745,-0.17923 0.29673,-0.25889 0.16927,-0.0797 0.38834,-0.0797 0.43414,0 0.66914,0.29673 0.23698,0.29673 0.23698,0.83244 0,0.53771 -0.24097,0.83643 -0.23897,0.29673 -0.66515,0.29673 z m -0.0478,-1.98153 q -0.33457,0 -0.48393,0.18521 -0.14936,0.18521 -0.15334,0.58948 v 0.0737 q 0,0.46004 0.15334,0.65919 0.15334,0.19715 0.4919,0.19715 0.28279,0 0.44211,-0.22902 0.16131,-0.22902 0.16131,-0.6313 0,-0.40825 -0.16131,-0.62533 -0.15932,-0.21906 -0.45008,-0.21906 z"
           inkscape:connector-curvature="0" />
        <path
           id="path5814"
           style="stroke-width:0.35247275"
           d="m 139.73278,143.85659 v 1.41595 q 0,0.26686 0.12148,0.3983 0.12148,0.13143 0.38037,0.13143 0.34254,0 0.49987,-0.1872 0.15932,-0.1872 0.15932,-0.61138 v -1.1471 h 0.33058 v 2.18267 h -0.27283 l -0.0478,-0.29275 h -0.0179 q -0.10156,0.16131 -0.28279,0.24695 -0.17923,0.0856 -0.41025,0.0856 -0.39829,0 -0.59744,-0.18919 -0.19716,-0.18919 -0.19716,-0.60541 v -1.4279 z"
           inkscape:connector-curvature="0" />
        <path
           id="path5816"
           style="stroke-width:0.35247275"
           d="m 143.3314,145.44381 q 0,0.30469 -0.22703,0.46999 -0.22703,0.16529 -0.63728,0.16529 -0.43414,0 -0.6771,-0.13741 v -0.30669 q 0.15732,0.0797 0.33656,0.12546 0.18122,0.0458 0.34851,0.0458 0.25889,0 0.3983,-0.0816 0.1394,-0.0837 0.1394,-0.25292 0,-0.12746 -0.11152,-0.21708 -0.10953,-0.0916 -0.43016,-0.21508 -0.3047,-0.11351 -0.43415,-0.19715 -0.12745,-0.0856 -0.19118,-0.19318 -0.0617,-0.10754 -0.0617,-0.2569 0,-0.26686 0.21708,-0.4202 0.21707,-0.15534 0.59545,-0.15534 0.35249,0 0.68905,0.14339 l -0.11749,0.26885 q -0.3286,-0.13542 -0.59546,-0.13542 -0.23499,0 -0.35448,0.0737 -0.11949,0.0737 -0.11949,0.20313 0,0.0876 0.0438,0.14937 0.0458,0.0617 0.14538,0.11749 0.0996,0.0558 0.38237,0.16131 0.38834,0.1414 0.52376,0.28479 0.13741,0.14338 0.13741,0.36046 z"
           inkscape:connector-curvature="0" />
        <path
           id="path5818"
           style="stroke-width:0.35247275"
           d="m 145.31492,146.03926 h -0.33855 v -2.91155 h 1.62306 v 0.30071 h -1.28451 v 1.06545 h 1.20684 v 0.30071 h -1.20684 z"
           inkscape:connector-curvature="0" />
        <path
           id="path5820"
           style="stroke-width:0.35247275"
           d="m 148.91354,144.94593 q 0,0.53372 -0.26885,0.83444 -0.26885,0.29872 -0.74283,0.29872 -0.29274,0 -0.51977,-0.13741 -0.22703,-0.13741 -0.35051,-0.39432 -0.12347,-0.2569 -0.12347,-0.60143 0,-0.53372 0.26686,-0.83045 0.26686,-0.29872 0.74083,-0.29872 0.45805,0 0.7269,0.3047 0.27084,0.3047 0.27084,0.82447 z m -1.66289,0 q 0,0.41822 0.16728,0.63728 0.16729,0.21906 0.4919,0.21906 0.32461,0 0.4919,-0.21707 0.16927,-0.21906 0.16927,-0.63927 0,-0.41622 -0.16927,-0.6313 -0.16729,-0.21707 -0.49588,-0.21707 -0.32462,0 -0.48991,0.21309 -0.16529,0.21309 -0.16529,0.63528 z"
           inkscape:connector-curvature="0" />
        <path
           id="path5822"
           style="stroke-width:0.35247275"
           d="m 150.8871,146.03926 h -1.58323 v -0.22504 l 1.19091,-1.70073 h -1.11722 v -0.2569 h 1.47967 v 0.2569 l -1.17498,1.66887 h 1.20485 z"
           inkscape:connector-curvature="0" />
        <path
           id="path5824"
           style="stroke-width:0.35247275"
           d="m 153.94802,145.74651 h -0.0179 q -0.22902,0.33258 -0.68507,0.33258 -0.42817,0 -0.66715,-0.29275 -0.23699,-0.29275 -0.23699,-0.83244 0,-0.53969 0.23898,-0.83842 0.23898,-0.29872 0.66516,-0.29872 0.4441,0 0.68109,0.32262 h 0.0259 l -0.0139,-0.15733 -0.008,-0.15334 v -0.8882 h 0.33059 v 3.09875 h -0.26886 z m -0.66117,0.0558 q 0.33855,0 0.4899,-0.18321 0.15335,-0.18521 0.15335,-0.59546 v -0.0697 q 0,-0.46402 -0.15534,-0.66117 -0.15334,-0.19915 -0.4919,-0.19915 -0.29075,0 -0.44609,0.22703 -0.15334,0.22503 -0.15334,0.63727 0,0.41822 0.15334,0.6313 0.15335,0.21309 0.45008,0.21309 z"
           inkscape:connector-curvature="0" />
        <path
           id="path5826"
           style="stroke-width:0.35247275"
           d="m 156.84763,144.94593 q 0,0.53372 -0.26885,0.83444 -0.26885,0.29872 -0.74283,0.29872 -0.29274,0 -0.51977,-0.13741 -0.22703,-0.13741 -0.35051,-0.39432 -0.12347,-0.2569 -0.12347,-0.60143 0,-0.53372 0.26686,-0.83045 0.26686,-0.29872 0.74083,-0.29872 0.45805,0 0.7269,0.3047 0.27084,0.3047 0.27084,0.82447 z m -1.66289,0 q 0,0.41822 0.16728,0.63728 0.16729,0.21906 0.4919,0.21906 0.32461,0 0.4919,-0.21707 0.16927,-0.21906 0.16927,-0.63927 0,-0.41622 -0.16927,-0.6313 -0.16729,-0.21707 -0.49588,-0.21707 -0.32462,0 -0.48991,0.21309 -0.16529,0.21309 -0.16529,0.63528 z"
           inkscape:connector-curvature="0" />
        <path
           id="path5828"
           style="stroke-width:0.35247275"
           d="m 158.53442,146.03926 v -2.91155 h 0.33855 v 2.91155 z"
           inkscape:connector-curvature="0" />
        <path
           id="path5830"
           style="stroke-width:0.35247275"
           d="m 161.41013,143.85659 v 0.20911 l -0.40427,0.0478 q 0.0558,0.0697 0.0996,0.18322 0.0438,0.11152 0.0438,0.25292 0,0.32063 -0.21906,0.51181 -0.21906,0.19118 -0.60143,0.19118 -0.0976,0 -0.18322,-0.0159 -0.21109,0.11152 -0.21109,0.2808 0,0.0896 0.0737,0.13343 0.0737,0.0418 0.25292,0.0418 h 0.38635 q 0.35448,0 0.54368,0.14936 0.19118,0.14937 0.19118,0.43415 0,0.36245 -0.29076,0.55164 -0.29076,0.19118 -0.84837,0.19118 -0.42817,0 -0.66118,-0.15932 -0.23101,-0.15932 -0.23101,-0.45007 0,-0.19915 0.12746,-0.34453 0.12745,-0.14538 0.35846,-0.19716 -0.0836,-0.0378 -0.14139,-0.11749 -0.0558,-0.0797 -0.0558,-0.18521 0,-0.11949 0.0637,-0.20911 0.0637,-0.0896 0.20114,-0.17326 -0.16927,-0.0697 -0.27681,-0.23699 -0.10555,-0.16728 -0.10555,-0.38236 0,-0.35847 0.21508,-0.55164 0.21508,-0.19517 0.60939,-0.19517 0.17127,0 0.30868,0.0398 z m -1.74056,2.5491 q 0,0.17725 0.14936,0.26886 0.14936,0.0916 0.42817,0.0916 0.41622,0 0.61537,-0.12546 0.20114,-0.12347 0.20114,-0.33656 0,-0.17724 -0.10953,-0.24695 -0.10953,-0.0677 -0.41224,-0.0677 h -0.39631 q -0.22503,0 -0.3505,0.10754 -0.12546,0.10754 -0.12546,0.30868 z m 0.17923,-1.85009 q 0,0.22902 0.12945,0.34652 0.12945,0.1175 0.36046,0.1175 0.48393,0 0.48393,-0.46999 0,-0.4919 -0.48991,-0.4919 -0.233,0 -0.35846,0.12546 -0.12547,0.12547 -0.12547,0.37241 z"
           inkscape:connector-curvature="0" />
        <path
           id="path5832"
           style="stroke-width:0.35247275"
           d="m 162.17287,143.85659 v 1.41595 q 0,0.26686 0.12148,0.3983 0.12148,0.13143 0.38038,0.13143 0.34253,0 0.49986,-0.1872 0.15932,-0.1872 0.15932,-0.61138 v -1.1471 h 0.33058 v 2.18267 h -0.27283 l -0.0478,-0.29275 h -0.0179 q -0.10156,0.16131 -0.28279,0.24695 -0.17923,0.0856 -0.41025,0.0856 -0.39829,0 -0.59744,-0.18919 -0.19716,-0.18919 -0.19716,-0.60541 v -1.4279 z"
           inkscape:connector-curvature="0" />
        <path
           id="path5834"
           style="stroke-width:0.35247275"
           d="m 165.70577,146.03926 -0.0657,-0.31067 h -0.0159 q -0.1633,0.20512 -0.32661,0.27881 -0.16131,0.0717 -0.40427,0.0717 -0.32461,0 -0.50982,-0.16728 -0.18322,-0.16729 -0.18322,-0.47597 0,-0.66117 1.05748,-0.69304 l 0.37042,-0.0119 v -0.13542 q 0,-0.2569 -0.11152,-0.37838 -0.10953,-0.12347 -0.3525,-0.12347 -0.27283,0 -0.61736,0.16728 l -0.10156,-0.25292 q 0.16131,-0.0876 0.35249,-0.13741 0.19318,-0.0498 0.38635,-0.0498 0.39033,0 0.57753,0.17326 0.18919,0.17326 0.18919,0.55563 v 1.48963 z m -0.74681,-0.233 q 0.30868,0 0.48393,-0.16928 0.17725,-0.16928 0.17725,-0.47397 v -0.19716 l -0.33059,0.0139 q -0.39432,0.0139 -0.56957,0.12347 -0.17326,0.10754 -0.17326,0.33656 0,0.17924 0.10754,0.27284 0.10954,0.0936 0.3047,0.0936 z"
           inkscape:connector-curvature="0" />
        <path
           id="path5836"
           style="stroke-width:0.35247275"
           d="m 167.50608,146.07909 q -0.47398,0 -0.73486,-0.29076 -0.2589,-0.29275 -0.2589,-0.82646 0,-0.54766 0.26288,-0.84639 0.26487,-0.29872 0.75278,-0.29872 0.15733,0 0.31466,0.0339 0.15733,0.0339 0.24694,0.0797 l -0.10156,0.2808 q -0.10954,-0.0438 -0.23898,-0.0717 -0.12945,-0.0299 -0.22902,-0.0299 -0.66516,0 -0.66516,0.84837 0,0.40228 0.16131,0.61736 0.1633,0.21508 0.48194,0.21508 0.27283,0 0.55961,-0.11749 v 0.29275 q -0.21907,0.11351 -0.55164,0.11351 z m 0.29474,0.53571 q 0,0.19318 -0.15335,0.29872 -0.15135,0.10555 -0.45007,0.10555 -0.10157,0 -0.19119,-0.0179 v -0.2111 q 0.0896,0.0159 0.20712,0.0159 0.15732,0 0.23698,-0.0398 0.0817,-0.0398 0.0817,-0.14737 0,-0.0856 -0.0797,-0.1394 -0.0777,-0.0518 -0.29474,-0.0856 l 0.17525,-0.35449 h 0.21906 l -0.10953,0.22902 q 0.35847,0.0777 0.35847,0.34652 z"
           inkscape:connector-curvature="0" />
        <path
           id="path5838"
           style="stroke-width:0.35247275"
           d="m 168.88817,143.85659 v 1.41595 q 0,0.26686 0.12148,0.3983 0.12148,0.13143 0.38037,0.13143 0.34254,0 0.49987,-0.1872 0.15932,-0.1872 0.15932,-0.61138 v -1.1471 h 0.33058 v 2.18267 h -0.27283 l -0.0478,-0.29275 h -0.0179 q -0.10157,0.16131 -0.28279,0.24695 -0.17924,0.0856 -0.41025,0.0856 -0.3983,0 -0.59745,-0.18919 -0.19715,-0.18919 -0.19715,-0.60541 v -1.4279 z"
           inkscape:connector-curvature="0" />
      </g>
    </g>
  </g>
</svg>
