<?xml version="1.0" encoding="UTF-8" standalone="no"?>
<svg
   xmlns:dc="http://purl.org/dc/elements/1.1/"
   xmlns:cc="http://creativecommons.org/ns#"
   xmlns:rdf="http://www.w3.org/1999/02/22-rdf-syntax-ns#"
   xmlns:svg="http://www.w3.org/2000/svg"
   xmlns="http://www.w3.org/2000/svg"
   xmlns:sodipodi="http://sodipodi.sourceforge.net/DTD/sodipodi-0.dtd"
   xmlns:inkscape="http://www.inkscape.org/namespaces/inkscape"
   version="1.1"
   id="svg2"
   xml:space="preserve"
   width="1333.3333"
   height="2206.1733"
   viewBox="0 0 1333.3333 2206.1733"
   sodipodi:docname="lett-vertical-original.ai.svg"
   inkscape:version="1.0.2 (e86c870879, 2021-01-15)"><metadata
     id="metadata8"><rdf:RDF><cc:Work
         rdf:about=""><dc:format>image/svg+xml</dc:format><dc:type
           rdf:resource="http://purl.org/dc/dcmitype/StillImage" /><dc:title></dc:title></cc:Work></rdf:RDF></metadata><defs
     id="defs6" /><sodipodi:namedview
     pagecolor="#ffffff"
     bordercolor="#666666"
     borderopacity="1"
     objecttolerance="10"
     gridtolerance="10"
     guidetolerance="10"
     inkscape:pageopacity="0"
     inkscape:pageshadow="2"
     inkscape:window-width="931"
     inkscape:window-height="480"
     id="namedview4"
     showgrid="false"
     inkscape:zoom="0.31230547"
     inkscape:cx="666.66663"
     inkscape:cy="1103.0867"
     inkscape:window-x="1555"
     inkscape:window-y="502"
     inkscape:window-maximized="0"
     inkscape:current-layer="g10" /><g
     id="g10"
     inkscape:groupmode="layer"
     inkscape:label="lett-vertical-original"
     transform="matrix(1.3333333,0,0,-1.3333333,0,2206.1733)"><g
       id="g12"
       transform="translate(933.8535,1586.2896)"><path
         d="M 0,0 V -718.176 H -497.849 L -495.409,0 Z"
         style="fill:#00e676;fill-opacity:1;fill-rule:nonzero;stroke:none"
         id="path14" /></g><g
       id="g16"
       transform="translate(370.3572,1654.6266)"><path
         d="m 0,0 -2.493,-761.32 h -367.864 v -463.874 H 89.531 l 1.198,370.344 H 629.44 V 0 Z M 93.217,-93.53 H 535.911 V -761.32 H 91.037 Z M -282.122,-854.85 H -2.803 l -0.892,-275.993 h -278.427 z"
         style="fill:#000000;fill-opacity:1;fill-rule:nonzero;stroke:none"
         id="path18" /></g><g
       id="g20"
       transform="translate(0,339.0201)"><path
         d="m 0,0 v -339.02 h 193.652 v 74.714 H 87.929 L 87.929,0 Z"
         style="fill:#000000;fill-opacity:1;fill-rule:nonzero;stroke:none"
         id="path22" /></g><g
       id="g24"
       transform="translate(243.3699,339.0201)"><path
         d="m 0,0 v -339.02 h 192.634 v 74.714 H 87.93 v 58.454 h 99.113 v 74.716 H 87.93 v 56.418 H 192.634 V 0 Z"
         style="fill:#000000;fill-opacity:1;fill-rule:nonzero;stroke:none"
         id="path26" /></g><g
       id="g28"
       transform="translate(485.7228,339.0201)"><path
         d="M 0,0 V -74.718 H 72.175 V -339.02 h 87.932 v 264.302 h 72.172 V 0 Z"
         style="fill:#000000;fill-opacity:1;fill-rule:nonzero;stroke:none"
         id="path30" /></g><g
       id="g32"
       transform="translate(767.7207,339.0201)"><path
         d="M 0,0 V -74.718 H 72.175 V -339.02 h 87.932 v 264.302 h 72.172 V 0 Z"
         style="fill:#000000;fill-opacity:1;fill-rule:nonzero;stroke:none"
         id="path34" /></g></g></svg>
