<?xml version="1.0" encoding="UTF-8" ?>
<!DOCTYPE svg PUBLIC "-//W3C//DTD SVG 1.1//EN" "http://www.w3.org/Graphics/SVG/1.1/DTD/svg11.dtd">
<svg width="1475pt" height="678pt" viewBox="0 0 1475 678" version="1.1" xmlns="http://www.w3.org/2000/svg">
<path fill="#fdfdfd" d=" M 0.00 0.00 L 1475.00 0.00 L 1475.00 678.00 L 0.00 678.00 L 0.00 0.00 Z" />
<path fill="#18191b" d=" M 1336.57 42.22 C 1348.75 41.06 1361.42 40.30 1373.29 43.93 C 1387.30 47.86 1399.94 58.15 1404.71 72.15 C 1409.44 84.71 1407.49 98.38 1405.93 111.34 C 1403.59 132.08 1401.14 152.82 1398.83 173.56 C 1396.65 192.45 1387.87 210.87 1373.12 223.13 C 1356.91 237.35 1335.13 243.16 1314.03 244.56 C 1304.01 245.50 1293.99 246.32 1283.99 247.41 C 1272.14 248.07 1260.24 250.46 1248.38 248.70 C 1235.64 247.70 1222.77 242.54 1214.31 232.70 C 1205.77 223.04 1203.08 209.55 1203.60 196.99 C 1204.11 187.98 1205.68 179.07 1206.59 170.10 C 1208.17 156.30 1209.77 142.51 1211.40 128.71 C 1212.57 118.59 1213.56 108.23 1217.63 98.77 C 1224.15 83.16 1236.38 70.54 1250.20 61.10 C 1260.20 54.49 1271.48 49.70 1283.31 47.58 C 1291.80 45.88 1300.48 45.69 1309.06 44.68 C 1318.24 44.03 1327.38 42.90 1336.57 42.22 Z" />
<path fill="#18191b" d=" M 981.97 82.36 C 1002.96 80.36 1023.95 78.29 1044.97 76.68 C 1057.40 76.76 1070.22 79.28 1080.68 86.33 C 1089.43 91.94 1096.22 100.61 1099.22 110.59 C 1102.75 121.26 1101.79 132.72 1100.32 143.67 C 1113.52 143.03 1126.62 141.14 1139.81 140.28 C 1139.04 151.45 1137.28 162.53 1136.11 173.66 C 1135.07 181.19 1134.79 188.83 1133.35 196.30 C 1120.12 197.00 1106.98 198.84 1093.77 199.69 C 1092.81 212.44 1090.14 225.31 1083.45 236.37 C 1069.76 259.10 1045.56 275.18 1019.28 278.94 C 1007.88 280.40 996.42 281.17 985.00 282.39 C 968.95 283.30 952.59 286.78 936.66 282.96 C 922.12 279.76 908.65 270.02 902.70 256.15 C 897.52 243.80 897.47 229.78 900.64 216.91 C 904.48 200.27 914.77 185.58 927.98 174.96 C 941.91 163.28 959.68 156.85 977.66 155.20 C 997.82 153.31 1017.99 151.53 1038.12 149.43 C 1038.47 144.72 1039.51 139.83 1038.36 135.17 C 1035.70 132.30 1031.43 133.49 1027.98 133.40 C 997.71 136.15 967.46 139.11 937.18 141.81 C 932.83 142.51 928.41 142.64 924.02 142.79 C 925.91 124.13 928.01 105.46 930.64 86.90 C 947.79 85.88 964.84 83.64 981.97 82.36 Z" />
<path fill="#18191b" d=" M 850.00 94.59 C 857.61 93.82 865.22 93.17 872.84 92.41 C 871.07 111.09 868.63 129.70 866.39 148.32 C 858.86 149.35 851.17 149.23 843.73 150.78 C 840.06 153.08 837.56 156.78 835.31 160.39 C 816.26 192.70 797.97 225.45 778.61 257.56 C 773.16 266.31 767.71 275.14 760.98 282.99 C 750.16 294.97 735.33 303.23 719.43 306.08 C 706.25 308.66 691.87 308.45 679.76 302.04 C 672.39 298.20 666.33 292.06 662.35 284.79 C 652.22 266.81 645.47 247.23 637.83 228.14 C 631.18 210.46 623.71 193.09 617.61 175.22 C 617.00 173.57 615.53 172.18 613.70 172.25 C 607.56 172.00 601.46 173.03 595.36 173.51 C 596.99 154.82 599.85 136.23 601.79 117.56 C 613.18 116.53 624.73 114.57 636.13 116.55 C 649.24 118.48 661.36 126.40 668.01 137.93 C 677.13 153.60 682.72 170.96 689.17 187.82 C 695.85 205.73 702.49 223.66 709.18 241.57 C 710.45 244.88 711.00 248.96 714.17 251.09 C 718.45 252.44 723.37 250.33 725.36 246.30 C 736.26 227.18 746.90 207.91 757.70 188.73 C 766.80 172.62 775.50 156.24 785.77 140.83 C 793.99 128.38 803.32 116.25 815.78 107.75 C 825.87 100.64 837.73 96.03 850.00 94.59 Z" />
<path fill="#fdfdfd" d=" M 1332.49 97.83 C 1336.72 97.81 1342.66 95.79 1345.49 100.02 C 1343.28 121.86 1340.54 143.70 1338.26 165.56 C 1337.35 170.91 1337.46 176.45 1335.85 181.66 C 1334.57 185.87 1329.95 187.74 1325.93 188.11 C 1314.26 189.13 1302.60 190.23 1290.95 191.42 C 1284.04 191.76 1277.15 193.24 1270.21 192.59 C 1268.57 192.42 1266.79 191.31 1266.56 189.58 C 1266.13 186.45 1266.47 183.28 1266.87 180.17 C 1269.58 157.31 1272.38 134.46 1274.95 111.59 C 1275.26 106.50 1279.68 102.64 1284.66 102.37 C 1300.60 100.78 1316.56 99.46 1332.49 97.83 Z" />
<path fill="#18191b" d=" M 500.47 126.91 C 516.23 125.38 532.03 124.17 547.78 122.47 C 547.55 130.33 546.21 138.08 545.48 145.90 C 538.66 204.38 531.95 262.88 525.19 321.37 C 524.92 322.52 525.09 324.78 523.29 324.60 C 503.07 326.83 482.75 328.22 462.52 330.47 C 470.37 263.17 478.19 195.86 485.82 128.54 C 490.61 127.23 495.61 127.74 500.47 126.91 Z" />
<path fill="#18191b" d=" M 353.92 140.57 C 382.15 137.71 410.43 135.42 438.65 132.47 C 437.28 151.18 434.49 169.79 432.47 188.45 C 405.46 191.11 378.43 193.60 351.41 196.01 C 347.42 196.26 344.85 199.69 342.57 202.57 C 338.37 208.58 335.04 215.13 331.27 221.41 C 316.05 247.50 301.22 273.81 285.62 299.69 C 276.67 313.64 268.34 328.72 254.69 338.73 C 239.49 350.14 219.77 355.05 200.96 353.00 C 187.56 351.46 174.76 343.87 168.01 332.03 C 157.06 313.16 150.08 292.36 141.98 272.19 C 136.21 257.22 130.24 242.34 124.56 227.34 C 123.25 223.42 122.34 217.18 116.85 217.72 C 89.31 220.31 61.75 222.68 34.24 225.54 C 35.17 206.85 38.81 188.37 39.88 169.67 C 63.35 167.13 86.87 165.29 110.36 162.98 C 121.83 162.00 133.61 160.15 144.95 163.22 C 156.90 165.91 167.38 173.93 173.34 184.60 C 182.45 200.63 188.11 218.28 194.61 235.46 C 201.24 253.46 207.79 271.50 214.51 289.46 C 215.78 292.22 216.50 295.95 219.70 297.13 C 223.80 298.13 228.38 295.94 230.23 292.14 C 247.87 261.06 264.97 229.68 282.84 198.74 C 289.30 188.13 296.12 177.67 304.24 168.24 C 316.92 153.67 334.53 142.88 353.92 140.57 Z" />
<path fill="#fdfdfd" d=" M 984.32 209.96 C 1000.05 208.39 1015.81 207.07 1031.55 205.51 C 1031.06 210.00 1031.05 214.78 1029.00 218.89 C 1026.47 223.10 1021.24 223.58 1016.85 224.08 C 1002.90 225.31 988.96 226.67 975.01 227.87 C 970.94 228.25 966.41 229.48 962.61 227.51 C 959.92 226.06 960.17 222.75 960.36 220.16 C 960.60 216.32 963.55 213.07 967.16 211.95 C 972.75 210.41 978.62 210.77 984.32 209.96 Z" />
<path fill="#18191b" d=" M 1374.13 327.05 C 1396.00 316.31 1420.75 315.15 1444.59 313.35 C 1441.99 334.24 1439.69 355.16 1436.90 376.02 C 1425.96 376.96 1414.97 377.60 1404.11 379.18 C 1398.54 379.93 1395.01 384.75 1392.08 389.05 C 1382.20 403.67 1372.28 418.27 1362.44 432.92 C 1369.26 446.65 1375.91 460.47 1382.70 474.22 C 1384.24 477.88 1388.21 479.58 1392.00 479.65 C 1402.88 480.02 1413.68 478.22 1424.52 477.51 C 1422.11 498.23 1419.17 518.91 1417.20 539.67 C 1410.23 541.36 1402.92 541.15 1395.82 542.07 C 1376.28 544.11 1355.50 542.81 1338.15 532.75 C 1327.41 526.76 1318.80 517.65 1311.94 507.56 C 1300.16 523.37 1286.55 538.88 1268.15 547.02 C 1246.02 557.13 1221.26 556.83 1197.56 559.46 C 1200.37 538.54 1202.42 517.51 1205.42 496.62 C 1215.89 495.70 1226.36 494.89 1236.82 493.86 C 1241.70 493.57 1245.80 490.40 1248.38 486.41 C 1258.80 470.92 1269.44 455.58 1279.80 440.05 C 1273.15 426.44 1266.39 412.88 1259.65 399.32 C 1257.66 394.87 1252.81 392.26 1248.03 392.56 C 1238.00 393.09 1228.04 394.49 1218.01 394.90 C 1220.05 374.05 1222.89 353.27 1225.40 332.47 C 1245.90 330.96 1266.74 327.05 1287.18 331.18 C 1297.40 333.19 1307.15 338.06 1314.50 345.49 C 1320.51 351.33 1325.08 358.42 1329.26 365.63 C 1341.87 350.40 1356.05 335.69 1374.13 327.05 Z" />
<path fill="#18191b" d=" M 1092.67 343.91 C 1117.30 341.92 1141.89 339.67 1166.51 337.51 C 1160.84 383.71 1155.07 429.88 1149.39 476.08 C 1147.95 486.42 1147.48 497.04 1143.87 506.94 C 1137.99 523.61 1125.97 537.42 1112.21 548.20 C 1095.61 561.43 1075.21 569.95 1054.02 571.84 C 1029.38 574.16 1004.71 576.12 980.07 578.41 C 967.71 579.16 955.41 581.12 943.01 580.81 C 926.02 580.87 908.17 576.30 895.40 564.61 C 887.15 557.38 881.87 547.14 880.08 536.38 C 877.74 523.76 880.64 511.08 881.85 498.52 C 887.55 452.64 892.88 406.71 898.68 360.84 C 923.31 358.94 947.90 356.48 972.52 354.52 C 967.17 398.35 961.90 442.19 956.54 486.01 C 955.64 495.37 953.85 504.66 953.48 514.05 C 953.62 517.70 958.20 517.76 960.92 517.72 C 974.64 517.24 988.26 515.33 1001.96 514.44 C 1021.53 512.67 1041.11 511.01 1060.69 509.27 C 1067.11 508.39 1073.55 503.07 1073.75 496.25 C 1080.09 445.47 1086.21 394.67 1092.67 343.91 Z" />
<path fill="#18191b" d=" M 742.06 374.65 C 766.40 372.50 790.73 370.25 815.09 368.33 C 807.41 432.87 799.12 497.34 791.26 561.86 C 789.69 578.51 777.05 592.52 762.09 598.98 C 752.84 602.79 740.84 604.44 732.71 597.30 C 703.28 572.07 673.83 546.85 644.42 521.59 C 628.69 508.32 613.32 494.62 597.43 481.55 C 591.72 525.37 586.66 569.28 581.28 613.15 C 556.65 615.34 532.02 617.60 507.37 619.55 C 515.24 554.48 523.29 489.42 531.23 424.35 C 532.26 414.76 537.60 406.05 544.99 400.00 C 556.85 390.09 572.64 385.47 587.98 386.21 C 594.70 385.97 601.64 387.73 606.84 392.14 C 646.68 425.77 686.61 459.30 726.39 493.00 C 731.48 456.29 735.57 419.44 740.30 382.67 C 740.84 380.04 740.21 376.75 742.06 374.65 Z" />
<path fill="#18191b" d=" M 386.49 405.69 C 411.09 403.55 435.67 401.24 460.28 399.31 C 451.09 474.79 441.88 550.26 432.55 625.72 C 407.94 628.10 383.28 630.04 358.66 632.29 C 367.95 556.76 377.01 481.19 386.49 405.69 Z" />
<path fill="#18191b" d=" M 135.55 434.66 C 157.10 424.48 181.25 423.60 204.56 421.55 C 201.92 442.49 199.40 463.45 196.55 484.36 C 190.36 484.62 184.22 485.46 178.04 485.88 C 172.96 486.60 167.44 486.15 162.83 488.77 C 159.89 490.80 159.61 494.70 159.18 497.94 C 155.78 526.36 151.94 554.73 148.69 583.17 C 147.70 587.86 153.65 588.38 156.94 588.18 C 202.44 584.34 247.90 580.16 293.40 576.36 C 290.60 597.29 288.24 618.28 285.30 639.19 C 238.51 642.87 191.79 647.45 145.01 651.19 C 128.65 651.90 111.39 651.20 96.61 643.40 C 86.07 637.93 78.35 627.63 75.85 616.03 C 73.29 604.86 74.14 593.22 75.59 581.95 C 78.54 558.62 81.37 535.27 84.35 511.94 C 85.44 501.70 86.98 491.39 90.63 481.70 C 98.14 460.57 115.25 443.73 135.55 434.66 Z" />
</svg>
