<svg width="100.65mm" height="39.846mm" version="1.1" viewBox="0 0 100.65 39.846" xmlns="http://www.w3.org/2000/svg">
 <g transform="translate(-54.637 -105.93)">
  <g transform="matrix(.4063 0 0 -.4063 -127.89 167.81)">
   <g fill-rule="evenodd">
    <path d="m522.67 115.95h17.886v16.51h-17.886z" fill="#fbbc09"/>
    <path d="m522.59 111.83h19.349l20.63-20.637h-27.51z" fill="#0daa4c"/>
    <path d="m517.12 115.95h-17.887v16.51h17.887z" fill="#ef3120"/>
    <path d="m517.21 111.83h-19.35l-20.629-20.637h27.51z" fill="#1575c5"/>
   </g>
   <path d="m617.74 111.84h6.835v-20.671h-6.835zm17.386-14.653h3.634c5.985 0 8.657 2.43 8.657 7.291 0 4.85-2.672 7.362-8.657 7.362h-10.47v-20.671h6.836zm5.577 7.35c0-1.416-0.502-2.813-3.469-2.813h-2.138v5.737h2.138c2.967 0 3.469-1.398 3.469-2.815zm-75.009 7.303h6.835v-20.671h-6.835zm27.753 0v-4.645h-5.812v-16.026h-6.837v16.026h-5.812v4.645zm7.377-11.757h5.404l-2.068 6.836c-0.091 0.276-0.215 0.418-0.634 0.418-0.42 0-0.543-0.142-0.624-0.418zm6.448-4.227h-7.491l-1.709-4.687h-7.019l6.773 18.022c0.727 1.954 1.863 2.702 4.053 2.702h3.294c2.191 0 3.337-0.748 4.053-2.702l6.774-18.022h-7.02zm52.2-5.139c6.69 0 9.507 2.416 9.507 9.396v11.727h-6.817v-13.343c0-1.648-0.716-2.968-2.69-2.968-1.986 0-2.702 1.32-2.702 2.968v13.343h-6.806v-11.727c0-6.979 2.822-9.396 9.508-9.396" fill="#231f20"/>
   <path d="m664.2 74.356h-6.513v11.508h1.246v-10.394h5.267zm-11.293 4.738-1.598 4.356c-0.126 0.347-0.237 0.731-0.336 1.154-0.098-0.435-0.209-0.817-0.335-1.154l-1.612-4.356zm3.077-4.738h-1.324l-1.324 3.577h-4.738l-1.327-3.577h-1.277l4.265 11.508h1.477zm-11.686 0h-1.184l-6.93 9.561c0.079-0.25 0.118-0.483 0.118-0.701v-8.86h-1.247v11.508h1.183l6.905-9.53c-0.06 0.287-0.092 0.495-0.092 0.625v8.905h1.247zm-12.839 5.89c0 1.604-0.239 2.772-0.719 3.499-0.539 0.827-1.465 1.239-2.781 1.239-1.31 0-2.23-0.415-2.759-1.248-0.457-0.714-0.687-1.879-0.687-3.49 0-1.755 0.232-3.008 0.695-3.755 0.518-0.839 1.435-1.255 2.751-1.255 1.319 0 2.246 0.416 2.781 1.255 0.48 0.758 0.719 2.01 0.719 3.755m1.276 0c0-1.989-0.319-3.468-0.957-4.432-0.756-1.145-2.027-1.716-3.819-1.716-1.783 0-3.044 0.571-3.786 1.716-0.624 0.955-0.936 2.432-0.936 4.432 0 1.833 0.312 3.219 0.936 4.153 0.758 1.144 2.019 1.715 3.786 1.715 1.771 0 3.045-0.571 3.819-1.715 0.638-0.939 0.957-2.325 0.957-4.153m-11.815-5.89h-1.248v11.508h1.248zm-3.567 2.056c-0.676-1.545-1.985-2.314-3.928-2.314-1.783 0-3.051 0.582-3.809 1.743-0.619 0.953-0.929 2.376-0.929 4.272 0 1.996 0.33 3.47 0.99 4.418 0.735 1.056 1.949 1.583 3.638 1.583 1.296 0 2.293-0.332 2.992-0.997 0.578-0.545 0.894-1.236 0.953-2.064h-1.154c-0.176 1.287-1.112 1.931-2.806 1.931-1.375 0-2.304-0.458-2.783-1.373-0.36-0.677-0.538-1.845-0.538-3.498 0-1.547 0.19-2.68 0.571-3.396 0.523-0.986 1.484-1.481 2.875-1.481 1.449 0 2.433 0.59 2.955 1.769zm-12.946 2.682-1.598 4.356c-0.125 0.347-0.236 0.731-0.335 1.154-0.098-0.435-0.211-0.817-0.336-1.154l-1.611-4.356zm3.078-4.738h-1.325l-1.324 3.577h-4.738l-1.327-3.577h-1.277l4.264 11.508h1.479zm-11.686 0h-1.185l-6.928 9.561c0.076-0.25 0.118-0.483 0.118-0.701v-8.86h-1.25v11.508h1.185l6.905-9.53c-0.062 0.287-0.093 0.495-0.093 0.625v8.905h1.248zm-11.88 0h-1.247v11.508h1.247zm-4.743 3.413c0 1.384-0.922 2.08-2.765 2.08h-2.969v-4.379h2.797c1.086 0 1.847 0.172 2.282 0.518 0.437 0.346 0.655 0.94 0.655 1.781m-0.561 5.127c0 0.726-0.226 1.231-0.679 1.51-0.358 0.224-0.922 0.336-1.697 0.336h-2.797v-3.763h2.969c1.47 0 2.204 0.637 2.204 1.917m1.817-5.127c0-2.275-1.397-3.413-4.193-3.413h-4.053v11.508h4.051c2.437 0 3.655-0.988 3.655-2.968 0-1.09-0.435-1.856-1.309-2.298-0.099-0.053-0.242-0.088-0.428-0.1 0.162 0 0.303-0.023 0.428-0.064 1.231-0.432 1.849-1.321 1.849-2.665" fill="#231f20"/>
  </g>
 </g>
</svg>
