<?xml version="1.0" encoding="UTF-8" standalone="no"?>
<svg xmlns:dc="http://purl.org/dc/elements/1.1/" xmlns:cc="http://creativecommons.org/ns#" xmlns:rdf="http://www.w3.org/1999/02/22-rdf-syntax-ns#" xmlns:svg="http://www.w3.org/2000/svg" xmlns="http://www.w3.org/2000/svg" xmlns:sodipodi="http://sodipodi.sourceforge.net/DTD/sodipodi-0.dtd" xmlns:inkscape="http://www.inkscape.org/namespaces/inkscape" version="1.1" id="Acal_conecta" x="0px" y="0px" viewBox="0 0 1500 1080" xml:space="preserve" sodipodi:docname="Logo ACAL Conecta - formato svg con colores sólidos..svg" inkscape:version="1.0.1 (3bc2e813f5, 2020-09-07)" width="1500" height="1080"><metadata id="metadata51"><rdf:RDF><cc:Work rdf:about=""><dc:format>image/svg+xml</dc:format><dc:type rdf:resource="http://purl.org/dc/dcmitype/StillImage"/><dc:title/></cc:Work></rdf:RDF></metadata><defs id="defs49"/><sodipodi:namedview pagecolor="#ffffff" bordercolor="#666666" borderopacity="1" objecttolerance="10" gridtolerance="10" guidetolerance="10" inkscape:pageopacity="0" inkscape:pageshadow="2" inkscape:window-width="1920" inkscape:window-height="1010" id="namedview47" showgrid="false" showguides="true" inkscape:guide-bbox="true" inkscape:zoom="0.54604357" inkscape:cx="862.00027" inkscape:cy="484.84693" inkscape:window-x="1" inkscape:window-y="1080" inkscape:window-maximized="1" inkscape:current-layer="layer7" inkscape:document-rotation="0"><sodipodi:guide position="809.35252,764.67626" orientation="0,1" id="guide53" inkscape:locked="false"/><sodipodi:guide position="735.86331,1042.446" orientation="0,1" id="guide55" inkscape:locked="false"/><sodipodi:guide position="1466.0002,513.23743" orientation="0,1" id="guide57" inkscape:locked="false"/><sodipodi:guide position="1155.1079,297.84173" orientation="0,1" id="guide59" inkscape:locked="false"/><sodipodi:guide position="1179.7122,251.22302" orientation="0,1" id="guide61" inkscape:locked="false"/><sodipodi:guide position="1163.8265,35.253597" orientation="0,1" id="guide63" inkscape:locked="false"/><sodipodi:guide position="1202.7429,629.52852" orientation="0,1" id="guide65" inkscape:locked="false"/></sodipodi:namedview>
<style type="text/css" id="style10">
	.st0{fill:#AEAEAE;enable-background:new    ;}
	.st1{fill:#AEAEAE;}
	.st2{enable-background:new    ;}
	.st3{fill:#1694DD;enable-background:new    ;}
	.st4{fill:#E0E3E3;enable-background:new    ;}
	.st5{fill:#2B2B2B;enable-background:new    ;}
</style>



















<g inkscape:groupmode="layer" id="layer7" inkscape:label="Hilera de puntos"><path inkscape:connector-curvature="0" class="st4" d="m 658.56867,463.3 h -408.8 c -7.3,0 -13.2,-5.9 -13.2,-13.2 v 0 c 0,-7.3 5.9,-13.2 13.2,-13.2 h 408.8 c 7.3,0 13.2,5.9 13.2,13.2 v 0 c 0,7.3 -6,13.2 -13.2,13.2 z" id="path22-3" style="fill:#e0e3e3;enable-background:new"/><circle class="st5" cx="249.06866" cy="450.10001" r="12.5" id="circle24-0" style="fill:#2b2b2b;enable-background:new"/><circle class="st5" cx="300.96869" cy="450.10001" r="12.5" id="circle26-9" style="fill:#2b2b2b;enable-background:new"/><circle class="st5" cx="352.76868" cy="450.10001" r="12.5" id="circle28-9" style="fill:#2b2b2b;enable-background:new"/><circle class="st5" cx="404.66864" cy="450.10001" r="12.5" id="circle30-4" style="fill:#2b2b2b;enable-background:new"/><circle class="st5" cx="455.66864" cy="450.10001" r="12.5" id="circle32-2" style="fill:#2b2b2b;enable-background:new"/><circle class="st5" cx="507.56866" cy="450.10001" r="12.5" id="circle34-8" style="fill:#2b2b2b;enable-background:new"/><circle class="st5" cx="559.36865" cy="450.10001" r="12.5" id="circle36-3" style="fill:#2b2b2b;enable-background:new"/><circle class="st5" cx="611.26868" cy="450.10001" r="12.5" id="circle38-0" style="fill:#2b2b2b;enable-background:new"/></g><g inkscape:groupmode="layer" id="layer5" inkscape:label="Letras ta"><path inkscape:connector-curvature="0" id="Letra_a-8" class="st2" d="m 764.46867,833.4 c 22.1,-5.9 63.4,-5.6 83.4,0 48.2,13.4 48.2,59.7 48.2,59.7 V 1045 h -39.1 l -12.9,-33.3 c 0,0 -12.9,19.1 -31.5,26 -28.3,10.5 -63.5,8.2 -78.6,-3.2 -41.2,-31.4 -25,-80.7 -13,-96.1 26.1,-33.5 118,-27.2 118,-27.2 0,0 6.1,-40.9 -31.7,-40.9 -31.7,0 -60.9,15.1 -60.9,15.1 l -19.2,-38.1 c 0.1,0 18.1,-8.8 37.3,-13.9 z m 52.2,110.8 c 0,0 -29.1,-2.2 -41,12.9 -14,17.7 -8.3,31 -3.7,37.3 2.2,3 5.2,5.2 8.6,6.5 6.5,2.4 19.3,4.8 36.8,-2.3 21.9,-9 21.9,-31.8 21.9,-31.8 v -22.5 h -22.6 z" style="enable-background:new"/><path inkscape:connector-curvature="0" id="Letra_T-3" d="m 707.66867,992.7 v 42.8 c 0,0 -26.2,12.9 -69.4,8.1 -50.9,-5.7 -49,-60.1 -49,-60.1 V 872.9 h -27.9 v -24 l 32.1,-19.7 16.4,-44.2 h 36.8 v 44.1 h 59.2 V 873 h -59.2 v 105.8 c 0,0 -1.2,35 61,13.9 z"/></g><g inkscape:groupmode="layer" id="layer4" inkscape:label="Letras n e c"><path inkscape:connector-curvature="0" class="st2" d="m 685.16867,612.7 c -14.4,0 -24.1,6.2 -24.1,6.3 -14.7,10.3 -21.6,28.6 -21.6,46.5 v 117.4 h -57.8 V 566.8 h 43.9 l 9.1,31.7 c 0,0 20.8,-31.7 63,-31.7 40.5,0 57,13.7 62.9,21.4 5.9,7.7 10.1,16.6 12.7,26.9 2.6,10.3 3.9,22.6 3.9,37.1 V 783 h -57.6 V 661.5 c 0,0 1.5,-48.8 -34.4,-48.8 z" id="path15-2" style="enable-background:new"/><path inkscape:connector-curvature="0" class="st2" d="m 989.16867,689.3 h -135.8 c 0,0 -1.6,46.6 43.6,51.3 43.6,4.5 80.7,-20.8 80.7,-20.8 v 48.6 c 0,0 -24.8,14.6 -73,14.6 -58.1,0 -80.5,-27.4 -80.5,-27.4 0,0 -34.6,-32.4 -28.3,-91.6 6.7,-63.4 35.1,-80.4 54.6,-89.2 26,-11.7 68.3,-8.9 88.5,0 50.1,22 50.1,75.2 50.1,75.2 v 39.3 z m -94.1,-81.5 c -41.2,0 -40.5,43.8 -40.5,43.8 h 80.9 c 0,0.1 2.4,-43.8 -40.4,-43.8 z" id="path41-5" style="enable-background:new"/><path inkscape:connector-curvature="0" id="letra_C_min-8" class="st2" d="m 1155.7687,721.8 c 0,0 -62.4,40.5 -93.5,-0.7 -10.5,-13.9 -14.1,-56.7 -2.2,-83.8 18.8,-42.8 79.3,-14.5 79.3,-14.5 l 16.8,-44.7 c 0,0 -108.5,-42.8 -150.6,45.1 -21.20003,44.2 -5.4,102.1 10,125.8 41.1,63.4 140.4,20.1 140.4,20.1 z" style="enable-background:new"/></g><g inkscape:groupmode="layer" id="layer6" inkscape:label="Letras O y circulo azul"><path inkscape:connector-curvature="0" id="Letra_O-4" class="st2" d="m 876.56867,443.2 c 0,16.6 -2.1,31.8 -6.4,45.5 -4.3,13.7 -10.8,25.5 -19.4,35.5 -8.7,9.9 -19.6,17.6 -32.7,23 -13.1,5.4 -28.4,8.1 -45.9,8.1 -17,0 -31.7,-2.4 -44.2,-7.2 -12.5,-4.8 -22.9,-11.8 -31.2,-21 -8.3,-9.2 -14.4,-20.5 -18.4,-33.9 -4,-13.4 -6,-28.8 -6,-46 0,-16.6 2.2,-31.9 6.5,-45.6 4.3,-13.8 10.9,-25.6 19.6,-35.5 8.7,-9.9 19.6,-17.5 32.6,-22.9 13,-5.4 28.3,-8.1 45.8,-8.1 17.1,0 31.9,2.4 44.4,7.1 12.5,4.7 22.9,11.7 31.1,20.9 8.2,9.2 14.3,20.5 18.3,33.9 3.9,13.4 5.9,28.8 5.9,46.2 z m -55.3,2.2 c 0,-9.6 -0.7,-18.5 -2.2,-26.6 -1.5,-8.1 -4,-15.1 -7.6,-21.1 -3.6,-6 -8.3,-10.7 -14.2,-14 -5.9,-3.4 -13.4,-5 -22.3,-5 -8,0 -15,1.5 -20.9,4.5 -6,3 -10.9,7.4 -14.7,13.1 -3.8,5.8 -6.7,12.7 -8.7,20.8 -1.9,8.1 -2.9,17.3 -2.9,27.7 0,9.6 0.8,18.5 2.4,26.6 1.6,8.1 4.1,15.1 7.6,21.1 3.5,6 8.2,10.6 14.2,13.9 6,3.3 13.4,4.9 22.2,4.9 8.1,0 15.2,-1.5 21.2,-4.5 6,-3 10.9,-7.3 14.7,-13 3.8,-5.7 6.7,-12.6 8.5,-20.7 1.7,-8.1 2.7,-17.3 2.7,-27.7 z" style="enable-background:new"/><circle class="st3" cx="773.36865" cy="448" r="31.200001" id="circle18-1" style="fill:#1694dd;enable-background:new"/></g><g inkscape:groupmode="layer" id="layer3" inkscape:label="Letra L"><polygon id="Letra_L-0" class="st0" points="1274.1,37.3 1274.1,315.5 1443.7,315.5 1443.7,267.6 1331.8,267.6 1331.8,37.3 " style="fill:#aeaeae;enable-background:new" transform="translate(-217.93133)"/></g><g inkscape:groupmode="layer" id="layer2" inkscape:label="Letra C"><path inkscape:connector-curvature="0" id="letra_C-1" class="st2" d="m 764.36867,249.9 c 0,0 -110.5,47 -140.2,-11 -13.8,-27 -22.2,-82.2 -1.5,-119.5 37.5,-67.5 122.2,-17.1 122.2,-17.1 l 19.5,-46.6 c 0,0 -141.6,-67.4 -201.7,53.7 -28.4,57.1 -4.7,137.7 13.4,162.6 57.5,79.3 188.4,26 188.4,26 z" style="enable-background:new"/></g><g inkscape:groupmode="layer" id="layer1" inkscape:label="Letras A"><path inkscape:connector-curvature="0" id="Segunda_A-4" class="st0" d="m 856.66867,249.5 -19.2,66 H 773.56864 L 871.26867,37.300002 h 71.6 L 1040.5687,315.5 h -63.90003 l -19.2,-66 z m 50.4,-168.2 -35.3,119.2 h 15.8 39 15.8 z" style="fill:#aeaeae;enable-background:new"/><path inkscape:connector-curvature="0" id="Primera_A-3" class="st1" d="m 365.76867,249.5 -19.2,66 h -63.9 l 97.7,-278.199998 h 71.6 l 97.7,278.199998 h -63.9 l -19.2,-66 z m 50.4,-168.2 -35.3,119.2 h 15.8 39 15.8 z" style="fill:#aeaeae"/></g></svg>