<?xml version="1.0" encoding="UTF-8" standalone="no"?>
<!-- Created with Inkscape (http://www.inkscape.org/) -->

<svg
   xmlns:dc="http://purl.org/dc/elements/1.1/"
   xmlns:cc="http://creativecommons.org/ns#"
   xmlns:rdf="http://www.w3.org/1999/02/22-rdf-syntax-ns#"
   xmlns:svg="http://www.w3.org/2000/svg"
   xmlns="http://www.w3.org/2000/svg"
   xmlns:sodipodi="http://sodipodi.sourceforge.net/DTD/sodipodi-0.dtd"
   xmlns:inkscape="http://www.inkscape.org/namespaces/inkscape"
   width="165.59254mm"
   height="104.99165mm"
   viewBox="0 0 165.59254 104.99165"
   version="1.1"
   id="svg1903"
   inkscape:version="0.92.4 (5da689c313, 2019-01-14)"
   sodipodi:docname="Unioeste_Logo.svg">
  <defs
     id="defs1897" />
  <sodipodi:namedview
     id="base"
     pagecolor="#ffffff"
     bordercolor="#666666"
     borderopacity="1.0"
     inkscape:pageopacity="0.0"
     inkscape:pageshadow="2"
     inkscape:zoom="1.0609375"
     inkscape:cx="302.75872"
     inkscape:cy="116.00501"
     inkscape:document-units="mm"
     inkscape:current-layer="layer1"
     showgrid="false"
     inkscape:window-width="1680"
     inkscape:window-height="991"
     inkscape:window-x="0"
     inkscape:window-y="31"
     inkscape:window-maximized="1" />
  <metadata
     id="metadata1900">
    <rdf:RDF>
      <cc:Work
         rdf:about="">
        <dc:format>image/svg+xml</dc:format>
        <dc:type
           rdf:resource="http://purl.org/dc/dcmitype/StillImage" />
        <dc:title></dc:title>
      </cc:Work>
    </rdf:RDF>
  </metadata>
  <g
     inkscape:label="Camada 1"
     inkscape:groupmode="layer"
     id="layer1"
     transform="translate(-9.2272949,-106.71821)">
    <g
       id="g2489"
       transform="matrix(3.2205256,0,0,3.2205256,-193.82246,-362.14903)">
      <g
         transform="translate(-0.70774911,1.1222386)"
         id="g2478">
        <path
           d="m 89.45976,147.06536 c 2.968307,0 5.389103,2.43301 5.389103,5.41641 0,2.98351 -2.420796,5.41659 -5.389103,5.41659 -2.968307,0 -5.388821,-2.43308 -5.388821,-5.41659 0,-2.9834 2.420514,-5.41641 5.388821,-5.41641"
           style="fill:#b5335e;fill-opacity:1;fill-rule:evenodd;stroke:none;stroke-width:0.35277775"
           id="path460"
           inkscape:connector-curvature="0" />
        <path
           d="m 95.77166,147.06356 7.14e-4,5.4247 c 0,3.48492 -2.827725,6.33169 -6.294719,6.33169 -3.467488,0 -6.295072,-2.84737 -6.295072,-6.33229 v -5.4241 h -0.900607 l -2.11e-4,5.42481 c 0,3.983 3.232291,7.23251 7.195113,7.23251 3.962894,0 7.195185,-3.24743 7.195185,-7.23071 0,-1.71831 0,-3.70861 0,-5.42661 h -0.900288 z"
           style="fill:#463566;fill-opacity:1;fill-rule:evenodd;stroke:none;stroke-width:0.35277775"
           id="path462"
           inkscape:connector-curvature="0" />
        <path
           d="m 97.118459,147.06356 c 2.91e-4,1.8082 2.91e-4,3.61661 3.44e-4,5.42509 0,4.23203 -3.430799,7.68703 -7.641413,7.68703 -4.210791,0 -7.645188,-3.45641 -7.645188,-7.68851 1.06e-4,-1.80411 1.06e-4,-3.6195 1.06e-4,-5.42361 -0.30092,0 -0.602121,0 -0.9029,0 -2.11e-4,1.80841 -2.11e-4,3.61661 -2.11e-4,5.42481 0,4.73029 3.838292,8.5888 8.544489,8.5888 4.706231,0 8.54463,-3.85851 8.54463,-8.58852 0,-1.7405 7.1e-5,-3.6848 7.1e-5,-5.42509 -0.300073,0 -0.600075,0 -0.900078,0"
           style="fill:#463566;fill-opacity:1;fill-rule:evenodd;stroke:none;stroke-width:0.35277775"
           id="path464"
           inkscape:connector-curvature="0" />
        <path
           d="m 98.465259,147.06356 c 1.06e-4,1.80841 1.76e-4,3.61661 2.91e-4,5.42541 0,4.9791 -4.034084,9.04219 -8.988001,9.04219 -4.954481,0 -8.994986,-4.06488 -8.994986,-9.04438 0,-1.8004 0,-3.6232 0,-5.42322 -0.301696,0 -0.603391,0 -0.905404,0 0,1.8082 0,3.61661 0,5.42492 0,5.47719 4.444611,9.9448 9.893687,9.9448 5.449817,0 9.894111,-4.46909 9.894111,-9.94611 0,-1.76251 0,-3.66109 0,-5.42361 -0.300002,0 -0.60011,0 -0.899689,0"
           style="fill:#463566;fill-opacity:1;fill-rule:evenodd;stroke:none;stroke-width:0.35277775"
           id="path466"
           inkscape:connector-curvature="0" />
        <path
           d="m 99.811847,147.06356 c 0,1.80841 0,3.61732 3.44e-4,5.42569 0,5.72671 -4.637299,10.39781 -10.334695,10.39781 -5.697996,0 -10.344679,-4.67388 -10.344679,-10.40049 0,-1.79691 0,-3.62641 0,-5.42301 -0.302824,0 -0.605614,0 -0.908015,0 0,1.8082 0,3.61661 0,5.42492 0,6.22409 5.05072,11.30049 11.242816,11.30049 6.19319,0 11.244082,-5.0788 11.244082,-11.30311 0,-1.7848 0,-3.63759 0,-5.4223 -0.30021,0 -0.59968,0 -0.899897,0"
           style="fill:#463566;fill-opacity:1;fill-rule:evenodd;stroke:none;stroke-width:0.35277775"
           id="path468"
           inkscape:connector-curvature="0" />
        <path
           d="m 101.15865,147.06356 v 5.42601 c 0,6.47379 -5.240588,11.75311 -11.681392,11.75311 -6.441404,0 -11.694901,-5.28303 -11.694901,-11.7566 0,-1.793 0,-3.6298 0,-5.42252 h -0.90999 v 5.42502 c 0,6.97117 5.656898,12.65668 12.592896,12.65668 6.935999,0 12.593007,-5.68949 12.593007,-12.66109 v -5.42061 z"
           style="fill:#463566;fill-opacity:1;fill-rule:evenodd;stroke:none;stroke-width:0.35277775"
           id="path470"
           inkscape:connector-curvature="0" />
      </g>
      <text
         id="text474"
         style="font-variant:normal;font-weight:bold;font-size:9.30940533px;font-family:Arial;-inkscape-font-specification:Arial-BoldMT;writing-mode:lr-tb;fill:#463566;fill-opacity:1;fill-rule:nonzero;stroke:none;stroke-width:0.48991713"
         transform="scale(0.99744674,1.0025598)"
         x="69.709259"
         y="175.03192">
        <tspan
           id="tspan472"
           sodipodi:role="line"
           y="175.03192"
           x="69.709259 75.397293 81.085342 83.673363 89.361397 94.53743 99.71347 102.8135"
           style="stroke-width:0.48991713">unioeste</tspan>
      </text>
    </g>
  </g>
</svg>
